<svg width="1430" height="1430" viewBox="0 0 1430 1430" fill="none" xmlns="http://www.w3.org/2000/svg">
<rect width="1430" height="1430" rx="207.246" fill="white"/>
<mask id="mask0_517_2" style="mask-type:alpha" maskUnits="userSpaceOnUse" x="127" y="138" width="1181" height="1180">
<rect x="127.981" y="138.194" width="1179.61" height="1179.65" rx="207.246" fill="#03007E"/>
</mask>
<g mask="url(#mask0_517_2)">
<rect x="50.0801" y="-126.177" width="1263.07" height="1442.02" fill="url(#paint0_linear_517_2)"/>
<path d="M282.766 1249.29C227.86 1249.29 174.607 1242.02 123.009 1227.46C72.0714 1212.25 31.0571 1192.73 -0.0344442 1168.92L54.5411 1047.86C84.3096 1069.69 119.701 1087.22 160.715 1100.45C201.73 1113.68 242.744 1120.3 283.758 1120.3C329.403 1120.3 363.141 1113.68 384.971 1100.45C406.801 1086.56 417.717 1068.37 417.717 1045.88C417.717 1029.34 411.101 1015.78 397.871 1005.19C385.302 993.946 368.764 985.016 348.257 978.401C328.411 971.785 301.289 964.509 266.89 956.57C213.968 944.001 170.638 931.432 136.901 918.864C103.163 906.295 74.056 886.118 49.5797 858.334C25.7649 830.55 13.8575 793.505 13.8575 747.199C13.8575 706.846 24.7726 670.462 46.6028 638.048C68.4331 604.971 101.178 578.841 144.839 559.657C189.161 540.473 243.075 530.881 306.581 530.881C350.903 530.881 394.233 536.173 436.57 546.758C478.907 557.342 515.953 572.557 547.706 592.403L498.091 714.453C433.924 678.07 369.756 659.878 305.589 659.878C260.605 659.878 227.198 667.155 205.368 681.708C184.199 696.261 173.615 715.446 173.615 739.26C173.615 763.075 185.853 780.936 210.329 792.844C235.467 804.09 273.505 815.335 324.442 826.581C377.364 839.15 420.693 851.719 454.431 864.288C488.169 876.857 516.945 896.703 540.76 923.825C565.236 950.947 577.474 987.662 577.474 1033.97C577.474 1073.66 566.228 1110.04 543.736 1143.12C521.906 1175.53 488.83 1201.33 444.508 1220.52C400.186 1239.7 346.272 1249.29 282.766 1249.29ZM939.023 1020.48H1027.95V1191.12C1005.12 1208.35 978.678 1221.56 948.636 1230.78C918.594 1239.99 888.352 1244.6 857.909 1244.6C814.248 1244.6 774.993 1235.38 740.145 1216.96C705.296 1198.13 677.858 1172.3 657.83 1139.45C638.202 1106.2 628.388 1068.75 628.388 1027.09C628.388 985.434 638.202 948.182 657.83 915.336C677.858 882.089 705.496 856.253 740.746 837.827C775.995 819.001 815.65 809.588 859.712 809.588C896.564 809.588 930.01 815.797 960.052 828.214C990.094 840.631 1015.33 858.657 1035.76 882.29L973.271 939.97C943.229 908.326 906.978 892.504 864.519 892.504C837.681 892.504 813.848 898.112 793.019 909.327C772.19 920.543 755.967 936.365 744.351 956.794C732.734 977.222 726.926 1000.66 726.926 1027.09C726.926 1053.13 732.734 1076.36 744.351 1096.79C755.967 1117.22 771.989 1133.24 792.418 1144.86C813.247 1156.07 836.88 1161.68 863.317 1161.68C891.356 1161.68 916.592 1155.67 939.023 1143.66V1020.48ZM1169.26 1243.54C1148.24 1243.54 1130.54 1236.36 1116.19 1222C1101.83 1207.64 1094.65 1189.7 1094.65 1168.16C1094.65 1146.11 1101.83 1128.41 1116.19 1115.08C1130.54 1101.24 1148.24 1094.31 1169.26 1094.31C1190.29 1094.31 1207.98 1101.24 1222.34 1115.08C1236.7 1128.41 1243.87 1146.11 1243.87 1168.16C1243.87 1189.7 1236.7 1207.64 1222.34 1222C1207.98 1236.36 1190.29 1243.54 1169.26 1243.54Z" fill="#F9FBFD"/>
</g>
<defs>
<linearGradient id="paint0_linear_517_2" x1="1079.46" y1="18.0248" x2="42.3517" y2="1238.34" gradientUnits="userSpaceOnUse">
<stop stop-color="#03007E"/>
</linearGradient>
</defs>
</svg>
